<svg xmlns="http://www.w3.org/2000/svg" viewBox="0 0 512 512" role="img" aria-label="Nexo">
  <rect width="512" height="512" rx="112" fill="#0f1214"/>
  <path fill="#1f6570" d="M118 120h276c18 0 29 20 19 35L316 302c-6 9 0 22 11 22h67c18 0 29 20 18 35l-66 91c-10 14-32 7-32-10v-62c0-16-13-29-29-29H139c-18 0-28-20-18-35l93-135c6-9 0-21-11-21h-85c-18 0-29-20-19-35l19-3Z"/>
  <path fill="#8bd5df" d="M161 151h152c13 0 21 15 13 26l-53 76c-8 12 0 28 14 28h58c13 0 21 15 13 26l-14 20c-4 6-11 10-19 10H173c-13 0-21-15-14-26l53-76c8-12 0-28-14-28h-58c-13 0-21-15-13-26l14-20c4-6 11-10 20-10Z" opacity=".92"/>
  <path fill="#f6f8f4" d="M178 182h72l-58 84h72l-40 58h-72l58-84h-72l40-58Z" opacity=".96"/>
</svg>
